<mxfile host="app.diagrams.net" modified="2024-05-21T03:24:00.488Z" agent="Mozilla/5.0 (Windows NT 10.0; Win64; x64; rv:126.0) Gecko/20100101 Firefox/126.0" version="24.4.4" etag="0lN5ejXrRst41JPbVYsy" type="github">
  <diagram name="PÃ¡gina-1" id="WNKtahYT6M6NVOMqD-kX">
    <mxGraphModel>
      <root>
        <mxCell id="0" />
        <mxCell id="1" parent="0" />
      </root>
    </mxGraphModel>
  </diagram>
</mxfile>
